# xmcd CD database file
#
# Track frame offsets:
#	150
#	18500
#	41524
#	62921
#	85356
#	107391
#	128283
#	154423
#
# Disc length: 2340 seconds
#
# Revision: 0
# Processed by: cddbd v1.5.2PL0 Copyright (c) Steve Scherf et al.
# Submitted via: CDex 1.51
#
DISCID=5c092208
DTITLE=Amina Claudine Myers - In Touch
DYEAR=1989
DGENRE=Jazz
TTITLE0=It's All Right With Me
TTITLE1=Cairo
TTITLE2=Olaya
TTITLE3=First Sunday
TTITLE4=My Love Is Not Strong Enough
TTITLE5=Electric Ice
TTITLE6=Ballad For You, A
TTITLE7=Natural Self
EXTD=YEAR: 1989
EXTT0=
EXTT1=
EXTT2=
EXTT3=
EXTT4=
EXTT5=
EXTT6=
EXTT7=
PLAYORDER=
